{"title":"Blitz.2011.Cam.x264.Feel-Free ","uid":6502211,"size":1128318446,"categoryP":"video","categoryS":"movies","magnet":"?xt=urn:btih:34924cd03d2bc063345d51c6593d13206abda960&amp;dn=Blitz.2011.Cam.x264.Feel-Free+&amp;tr=udp%3A%2F%2Ftracker.openbittorrent.com%3A80&amp;tr=udp%3A%2F%2Fopen.demonii.com%3A1337&amp;tr=udp%3A%2F%2Ftracker.coppersurfer.tk%3A6969&amp;tr=udp%3A%2F%2Fexodus.desync.com%3A6969","seeders":0,"leechers":1,"uploader":"TPBAgri","files":-1,"time":1309289617,"description":"\nGenre:Thriller\nLanguage:English\nIMDb:http://www.imdb.com/title/tt1297919/\nSource:TS RELIZLAB/IMAGINE Thanks!\n\nFormat : MPEG-4\nFormat profile : Base Media\nCodec ID : isom\nFile size : 1.05 GiB\nDuration : 1h 31mn\nOverall bit rate : 1 635 Kbps\n\nVideo\nID : 1\nFormat : AVC\nFormat/Info : Advanced Video Codec\nFormat profile : &lt;a class=&quot;__cf_email__&quot; href=&quot;/cdn-cgi/l/email-protection&quot; data-cfemail=&quot;4a02232d220a067e647b&quot;&gt;[email&amp;#160;protected]&lt;/a&gt;&lt;script cf-hash='f9e31' type=&quot;text/javascript&quot;&gt;\n/* &lt;![CDATA[ */!function(){try{var t=&quot;currentScript&quot;in document?document.currentScript:function(){for(var t=document.getElementsByTagName(&quot;script&quot;),e=t.length;e--;)if(t[e].getAttribute(&quot;cf-hash&quot;))return t[e]}();if(t&amp;&amp;t.previousSibling){var e,r,n,i,c=t.previousSibling,a=c.getAttribute(&quot;data-cfemail&quot;);if(a){for(e=&quot;&quot;,r=parseInt(a.substr(0,2),16),n=2;a.length-n;n+=2)i=parseInt(a.substr(n,2),16)^r,e+=String.fromCharCode(i);e=document.createTextNode(e),c.parentNode.replaceChild(e,c)}}}catch(u){}}();/* ]]&gt; */&lt;/script&gt;\nFormat settings, CABAC : Yes\nFormat settings, ReFrames : 3 frames\nCodec ID : avc1\nCodec ID/Info : Advanced Video Coding\nDuration : 1h 31mn\nBit rate mode : Variable\nBit rate : 1 500 Kbps\nMaximum bit rate : 4 920 Kbps\nWidth : 640 pixels\nHeight : 240 pixels\nDisplay aspect ratio : 2.667\nFrame rate mode : Constant\nFrame rate : 25.000 fps\nColor space : YUV\nChroma subsampling : 4:2:0\nBit depth : 8 bits\nScan type : Progressive\nBits/(Pixel*Frame) : 0.391\nStream size : 985 MiB (92%)\nWriting library : x264\n\nAudio\nID : 2\nFormat : AAC\nFormat/Info : Advanced Audio Codec\nFormat version : Version 4\nFormat profile : LC\nFormat settings, SBR : No\nCodec ID : 40\nDuration : 1h 31mn\nBit rate mode : Variable\nBit rate : 132.3 Kbps\nMaximum bit rate : 271 Kbps\nChannel(s) : 2 channels\nChannel positions : Front: L R\nSampling rate : 44.1 KHz\nStream size : 87.7 MiB (8%)\n\n\nPlot:\nA tough cop is dispatched to take down a serial killer who has been targeting police officers. \n\n &lt;a href=&quot;\nhttp://leetleech.org/images/65884751770153478283.png&quot; rel=&quot;nofollow&quot; target=&quot;_NEW&quot;&gt;\nhttp://leetleech.org/images/65884751770153478283.png&lt;/a&gt;\n &lt;a href=&quot;\nhttp://leetleech.org/images/93470349983175149625.png&quot; rel=&quot;nofollow&quot; target=&quot;_NEW&quot;&gt;\nhttp://leetleech.org/images/93470349983175149625.png&lt;/a&gt;\n &lt;a href=&quot;\nhttp://leetleech.org/images/00956124357108257276.png&quot; rel=&quot;nofollow&quot; target=&quot;_NEW&quot;&gt;\nhttp://leetleech.org/images/00956124357108257276.png&lt;/a&gt;\n &lt;a href=&quot;\nhttp://leetleech.org/images/98995047323490098199.png&quot; rel=&quot;nofollow&quot; target=&quot;_NEW&quot;&gt;\nhttp://leetleech.org/images/98995047323490098199.png&lt;/a&gt;","torrent":{"xt":"urn:btih:34924cd03d2bc063345d51c6593d13206abda960","amp;dn":"Blitz.2011.Cam.x264.Feel-Free+","amp;tr":["udp%3A%2F%2Ftracker.openbittorrent.com%3A80","udp%3A%2F%2Fopen.demonii.com%3A1337","udp%3A%2F%2Ftracker.coppersurfer.tk%3A6969","udp%3A%2F%2Fexodus.desync.com%3A6969"],"infoHash":"34924cd03d2bc063345d51c6593d13206abda960","infoHashBuffer":{"type":"Buffer","data":[52,146,76,208,61,43,192,99,52,93,81,198,89,61,19,32,106,189,169,96]},"announce":[],"urlList":[]}}